{"asset":{"version":"2.0","generator":"babylon.js glTF exporter for Maya 2018 v20200618.4"},"scene":0,"scenes":[{"nodes":[0]}],"nodes":[{"children":[1],"name":"fangchongkaluzhangani"},{"mesh":0,"translation":[0.0,-1.0,0.0],"name":"fangchongkaluzhang"}],"meshes":[{"primitives":[{"attributes":{"POSITION":1,"TANGENT":2,"NORMAL":3,"TEXCOORD_0":4,"TEXCOORD_1":5},"indices":0,"material":0},{"attributes":{"POSITION":7,"TANGENT":8,"NORMAL":9,"TEXCOORD_0":10,"TEXCOORD_1":11},"indices":6,"material":1}],"name":"fangchongkaluzhang"}],"accessors":[{"bufferView":0,"componentType":5123,"count":1404,"type":"SCALAR","name":"accessorIndices"},{"bufferView":1,"componentType":5126,"count":672,"max":[-16.702776,5.05647564,-16.8842926],"min":[-19.9327679,4.023279,-17.1531849],"type":"VEC3","name":"accessorPositions"},{"bufferView":2,"componentType":5126,"count":672,"type":"VEC4","name":"accessorTangents"},{"bufferView":1,"byteOffset":8064,"componentType":5126,"count":672,"type":"VEC3","name":"accessorNormals"},{"bufferView":3,"componentType":5126,"count":672,"type":"VEC2","name":"accessorUVs"},{"bufferView":3,"byteOffset":5376,"componentType":5126,"count":672,"type":"VEC2","name":"accessorUV2s"},{"bufferView":0,"byteOffset":2808,"componentType":5123,"count":1152,"type":"SCALAR","name":"accessorIndices"},{"bufferView":1,"byteOffset":16128,"componentType":5126,"count":816,"max":[-16.702776,5.05647564,-16.8842926],"min":[-19.9327679,4.023279,-17.1531849],"type":"VEC3","name":"accessorPositions"},{"bufferView":2,"byteOffset":10752,"componentType":5126,"count":816,"type":"VEC4","name":"accessorTangents"},{"bufferView":1,"byteOffset":25920,"componentType":5126,"count":816,"type":"VEC3","name":"accessorNormals"},{"bufferView":3,"byteOffset":10752,"componentType":5126,"count":816,"type":"VEC2","name":"accessorUVs"},{"bufferView":3,"byteOffset":17280,"componentType":5126,"count":816,"type":"VEC2","name":"accessorUV2s"},{"bufferView":4,"componentType":5126,"count":2,"max":[2.04166675],"min":[0.0],"type":"SCALAR","name":"accessorAnimationInput"},{"bufferView":5,"componentType":5126,"count":2,"type":"VEC3","name":"accessorAnimationPositions"},{"bufferView":4,"byteOffset":8,"componentType":5126,"count":2,"max":[4.16666651],"min":[0.0],"type":"SCALAR","name":"accessorAnimationInput"},{"bufferView":5,"byteOffset":24,"componentType":5126,"count":2,"type":"VEC3","name":"accessorAnimationPositions"},{"bufferView":4,"byteOffset":16,"componentType":5126,"count":2,"max":[2.08333325],"min":[0.0],"type":"SCALAR","name":"accessorAnimationInput"},{"bufferView":5,"byteOffset":48,"componentType":5126,"count":2,"type":"VEC3","name":"accessorAnimationPositions"}],"bufferViews":[{"buffer":0,"byteLength":5112,"name":"bufferViewScalar"},{"buffer":0,"byteOffset":5112,"byteLength":35712,"byteStride":12,"name":"bufferViewFloatVec3"},{"buffer":0,"byteOffset":40824,"byteLength":23808,"byteStride":16,"name":"bufferViewFloatVec4"},{"buffer":0,"byteOffset":64632,"byteLength":23808,"byteStride":8,"name":"bufferViewFloatVec2"},{"buffer":0,"byteOffset":88440,"byteLength":24,"name":"bufferViewAnimationFloatScalar"},{"buffer":0,"byteOffset":88464,"byteLength":72,"name":"bufferViewAnimationFloatVec3"}],"buffers":[{"uri":"fangchongkaluzhangani.bin","byteLength":88536}],"materials":[{"pbrMetallicRoughness":{"baseColorFactor":[0.046,0.0348364078,0.0269559976,1.0],"metallicFactor":0.0,"roughnessFactor":0.450053632},"name":"fck03"},{"pbrMetallicRoughness":{"baseColorFactor":[0.8186813,0.357135981,0.0,1.0],"metallicFactor":0.0,"roughnessFactor":0.450053632},"name":"fck01"}],"animations":[{"channels":[{"sampler":0,"target":{"node":1,"path":"translation"}}],"samplers":[{"input":12,"output":13}],"name":"fangchongkaluzhangani01"},{"channels":[{"sampler":0,"target":{"node":1,"path":"translation"}}],"samplers":[{"input":14,"output":15}],"name":"fangchongkaluzhangani02"},{"channels":[{"sampler":0,"target":{"node":1,"path":"translation"}}],"samplers":[{"input":16,"output":17}],"name":"fangchongkaluzhangani03"}]}